<svg xmlns="http://www.w3.org/2000/svg" xmlns:xlink="http://www.w3.org/1999/xlink" version="1.1" width="256" height="256" viewBox="0 0 256 256" xml:space="preserve">
<desc>Created with Fabric.js 1.7.22</desc>
<defs>
</defs>
<g transform="translate(128 128) scale(0.72 0.72)" style="">
	<g style="stroke: none; stroke-width: 0; stroke-dasharray: none; stroke-linecap: butt; stroke-linejoin: miter; stroke-miterlimit: 10; fill: none; fill-rule: nonzero; opacity: 1;" transform="translate(-175.05 -175.05000000000004) scale(3.89 3.89)" >
	<path d="M 45 90 c -2.902 0 -5.803 -0.298 -8.623 -0.884 c -0.541 -0.113 -0.888 -0.643 -0.775 -1.184 c 0.112 -0.54 0.641 -0.886 1.183 -0.775 C 39.471 87.717 42.235 88 45 88 c 14.718 0 28.162 -7.996 35.214 -20.905 c -3.988 -7.292 -10.271 -13.283 -17.742 -16.907 c -1.872 -0.907 -4.078 -0.888 -6.05 0.061 c -3.581 1.721 -7.424 2.594 -11.422 2.594 s -7.841 -0.873 -11.421 -2.594 c -1.97 -0.946 -4.175 -0.969 -6.05 -0.061 c -7.472 3.624 -13.754 9.616 -17.742 16.907 c 1.135 2.075 2.459 4.061 3.943 5.905 c 0.346 0.431 0.278 1.061 -0.153 1.406 c -0.43 0.346 -1.061 0.277 -1.406 -0.152 c -1.674 -2.083 -3.156 -4.334 -4.404 -6.691 l -0.248 -0.468 l 0.248 -0.468 c 4.17 -7.876 10.878 -14.354 18.889 -18.238 c 2.426 -1.178 5.266 -1.156 7.79 0.057 c 3.308 1.59 6.859 2.396 10.555 2.396 c 3.695 0 7.246 -0.807 10.555 -2.396 c 2.525 -1.212 5.363 -1.233 7.79 -0.057 c 8.01 3.885 14.718 10.361 18.889 18.238 l 0.248 0.468 l -0.248 0.468 C 74.905 81.402 60.638 90 45 90 z" style="stroke: none; stroke-width: 1; stroke-dasharray: none; stroke-linecap: butt; stroke-linejoin: miter; stroke-miterlimit: 10; fill: rgb(0,0,0); fill-rule: nonzero; opacity: 1;" transform=" matrix(1 0 0 1 0 0) " stroke-linecap="round" />
	<path d="M 45 41.544 c -11.454 0 -20.772 -9.318 -20.772 -20.772 S 33.546 0 45 0 c 11.453 0 20.771 9.318 20.771 20.772 S 56.453 41.544 45 41.544 z M 45 2 c -10.351 0 -18.772 8.421 -18.772 18.772 S 34.649 39.544 45 39.544 c 10.351 0 18.771 -8.421 18.771 -18.772 S 55.351 2 45 2 z" style="stroke: none; stroke-width: 1; stroke-dasharray: none; stroke-linecap: butt; stroke-linejoin: miter; stroke-miterlimit: 10; fill: rgb(0,0,0); fill-rule: nonzero; opacity: 1;" transform=" matrix(1 0 0 1 0 0) " stroke-linecap="round" />
	<path d="M 38.434 76.065 l -8.01 -8.01 c -0.181 -0.181 -0.431 -0.294 -0.708 -0.294 s -0.527 0.112 -0.708 0.294 L 21 76.065 c -0.391 0.391 -0.391 1.023 0 1.414 s 1.023 0.391 1.414 0 l 6.303 -6.304 v 7.479 c 0 5.063 -4.12 9.184 -9.183 9.184 H 8.65 c -0.552 0 -1 0.447 -1 1 s 0.448 1 1 1 h 10.883 c 6.167 0 11.183 -5.017 11.183 -11.184 v -7.479 l 6.303 6.304 c 0.195 0.195 0.451 0.293 0.707 0.293 s 0.512 -0.098 0.707 -0.293 C 38.824 77.089 38.824 76.456 38.434 76.065 z" style="stroke: none; stroke-width: 1; stroke-dasharray: none; stroke-linecap: butt; stroke-linejoin: miter; stroke-miterlimit: 10; fill: rgb(0,0,0); fill-rule: nonzero; opacity: 1;" transform=" matrix(1 0 0 1 0 0) " stroke-linecap="round" />
</g>
</g>
</svg>